<svg width="1440" height="3021" viewBox="0 0 1440 3021" fill="none" xmlns="http://www.w3.org/2000/svg">
<rect width="1440" height="3387" fill="#002F76"/>
<g filter="url(#filter0_f_85_611)">
<rect width="623.101" height="79.693" rx="39.8465" transform="matrix(0.599006 -0.800745 0.661995 0.749509 468 1351.54)" fill="#D9D9D9" fill-opacity="0.2"/>
<rect width="623.101" height="79.693" rx="39.8465" transform="matrix(0.599006 -0.800745 0.661995 0.749509 489.059 1522.46)" fill="#D9D9D9" fill-opacity="0.2"/>
<rect width="494.411" height="63.2339" rx="31.6169" transform="matrix(-0.599006 0.800745 -0.661995 -0.749509 998.702 1381.44)" fill="#D9D9D9" fill-opacity="0.2"/>
<rect width="494.411" height="63.2339" rx="31.6169" transform="matrix(-0.599006 0.800745 -0.661995 -0.749509 955.118 1219.73)" fill="#D9D9D9" fill-opacity="0.2"/>
<ellipse cx="610.648" cy="1636.34" rx="33.6081" ry="41.3463" transform="rotate(180 610.648 1636.34)" fill="#D9D9D9" fill-opacity="0.2"/>
</g>
<g filter="url(#filter1_f_85_611)">
<ellipse cx="1440" cy="398.615" rx="188" ry="231.295" fill="#D9D9D9" fill-opacity="0.3"/>
</g>
<g filter="url(#filter2_f_85_611)">
<ellipse cx="45" cy="2666.24" rx="140" ry="172.241" fill="#D9D9D9" fill-opacity="0.3"/>
</g>
<g filter="url(#filter3_f_85_611)">
<ellipse cx="742.5" cy="1341.02" rx="255.5" ry="377.7" fill="#D9D9D9" fill-opacity="0.3"/>
</g>
<defs>
<filter id="filter0_f_85_611" x="439.1" y="823.694" width="576.86" height="968.209" filterUnits="userSpaceOnUse" color-interpolation-filters="sRGB">
<feFlood flood-opacity="0" result="BackgroundImageFix"/>
<feBlend mode="normal" in="SourceGraphic" in2="BackgroundImageFix" result="shape"/>
<feGaussianBlur stdDeviation="14.45" result="effect1_foregroundBlur_85_611"/>
</filter>
<filter id="filter1_f_85_611" x="913.5" y="-171.18" width="1053" height="1139.59" filterUnits="userSpaceOnUse" color-interpolation-filters="sRGB">
<feFlood flood-opacity="0" result="BackgroundImageFix"/>
<feBlend mode="normal" in="SourceGraphic" in2="BackgroundImageFix" result="shape"/>
<feGaussianBlur stdDeviation="169.25" result="effect1_foregroundBlur_85_611"/>
</filter>
<filter id="filter2_f_85_611" x="-392.9" y="2196.1" width="875.8" height="940.282" filterUnits="userSpaceOnUse" color-interpolation-filters="sRGB">
<feFlood flood-opacity="0" result="BackgroundImageFix"/>
<feBlend mode="normal" in="SourceGraphic" in2="BackgroundImageFix" result="shape"/>
<feGaussianBlur stdDeviation="148.95" result="effect1_foregroundBlur_85_611"/>
</filter>
<filter id="filter3_f_85_611" x="388.9" y="865.22" width="707.2" height="951.601" filterUnits="userSpaceOnUse" color-interpolation-filters="sRGB">
<feFlood flood-opacity="0" result="BackgroundImageFix"/>
<feBlend mode="normal" in="SourceGraphic" in2="BackgroundImageFix" result="shape"/>
<feGaussianBlur stdDeviation="49.05" result="effect1_foregroundBlur_85_611"/>
</filter>
</defs>
</svg>
